%TF.GenerationSoftware,KiCad,Pcbnew,7.0.9-7.0.9~ubuntu22.04.1*%
%TF.CreationDate,2025-04-18T14:33:25+03:00*%
%TF.ProjectId,RP2350pc_Rev_A,52503233-3530-4706-935f-5265765f412e,A*%
%TF.SameCoordinates,PX68e7780PY7735940*%
%TF.FileFunction,Paste,Top*%
%TF.FilePolarity,Positive*%
%FSLAX46Y46*%
G04 Gerber Fmt 4.6, Leading zero omitted, Abs format (unit mm)*
G04 Created by KiCad (PCBNEW 7.0.9-7.0.9~ubuntu22.04.1) date 2025-04-18 14:33:25*
%MOMM*%
%LPD*%
G01*
G04 APERTURE LIST*
G04 Aperture macros list*
%AMOutline4P*
0 Free polygon, 4 corners , with rotation*
0 The origin of the aperture is its center*
0 number of corners: always 4*
0 $1 to $8 corner X, Y*
0 $9 Rotation angle, in degrees counterclockwise*
0 create outline with 4 corners*
4,1,4,$1,$2,$3,$4,$5,$6,$7,$8,$1,$2,$9*%
G04 Aperture macros list end*
%ADD10R,0.500000X0.550000*%
%ADD11R,0.550000X0.500000*%
%ADD12C,1.000000*%
%ADD13R,1.400000X1.000000*%
%ADD14R,2.400000X2.800000*%
%ADD15R,2.400000X3.200000*%
%ADD16R,0.230000X1.580000*%
%ADD17R,1.016000X1.016000*%
%ADD18R,0.800000X0.800000*%
%ADD19R,2.200000X0.600000*%
%ADD20R,1.270000X1.524000*%
%ADD21R,0.550000X0.450000*%
%ADD22R,0.230000X0.750000*%
%ADD23R,3.700000X2.000000*%
%ADD24R,3.700000X2.400000*%
%ADD25R,3.700000X2.600000*%
%ADD26R,2.600000X3.700000*%
%ADD27R,1.524000X1.270000*%
%ADD28R,1.000000X1.400000*%
%ADD29R,1.800000X1.800000*%
%ADD30R,1.400000X1.800000*%
%ADD31R,1.400000X2.600000*%
%ADD32R,0.700000X1.100000*%
%ADD33R,1.200000X0.550000*%
%ADD34R,1.900000X3.900000*%
%ADD35R,1.400000X3.900000*%
%ADD36R,2.000000X1.700000*%
%ADD37Outline4P,-0.850000X-2.275000X0.850000X-2.275000X0.850000X2.275000X-0.850000X2.275000X270.000000*%
%ADD38R,1.500000X0.320000*%
%ADD39R,1.200000X1.400000*%
%ADD40R,3.200000X2.100000*%
%ADD41R,3.000000X2.100000*%
%ADD42R,2.200000X1.100000*%
%ADD43R,2.000000X1.100000*%
%ADD44R,1.130000X0.280000*%
%ADD45R,1.130000X0.230000*%
%ADD46R,0.605000X0.305000*%
%ADD47R,0.605000X0.230000*%
%ADD48R,1.700000X2.000000*%
%ADD49R,2.100000X3.200000*%
%ADD50R,2.100000X3.000000*%
%ADD51R,1.100000X2.200000*%
%ADD52R,1.100000X2.000000*%
%ADD53R,0.280000X1.130000*%
%ADD54R,0.230000X1.130000*%
%ADD55R,0.635000X1.600000*%
%ADD56R,0.800000X0.211000*%
%ADD57R,0.211000X0.800000*%
%ADD58R,0.400000X0.500000*%
%ADD59R,0.500000X0.400000*%
%ADD60R,1.750000X4.500000*%
%ADD61R,3.900000X2.400000*%
%ADD62R,3.400000X1.400000*%
%ADD63R,0.791000X0.211000*%
%ADD64R,0.211000X0.791000*%
%ADD65R,0.900000X1.700000*%
%ADD66R,1.000000X1.000000*%
G04 APERTURE END LIST*
D10*
%TO.C,R84*%
X52814000Y32671000D03*
X51798000Y32671000D03*
%TD*%
%TO.C,R101*%
X51798000Y31782000D03*
X52814000Y31782000D03*
%TD*%
D11*
%TO.C,R53*%
X24000000Y30292000D03*
X24000000Y31308000D03*
%TD*%
%TO.C,R48*%
X25200000Y30292000D03*
X25200000Y31308000D03*
%TD*%
D12*
%TO.C,FID2*%
X1500000Y59000000D03*
%TD*%
D11*
%TO.C,C53*%
X22800000Y30292000D03*
X22800000Y31308000D03*
%TD*%
%TO.C,R66*%
X33000000Y51392000D03*
X33000000Y52408000D03*
%TD*%
%TO.C,R63*%
X30000000Y51392000D03*
X30000000Y52408000D03*
%TD*%
%TO.C,R60*%
X27000000Y51392000D03*
X27000000Y52408000D03*
%TD*%
%TO.C,R59*%
X26000000Y51392000D03*
X26000000Y52408000D03*
%TD*%
D12*
%TO.C,FID3*%
X83500000Y7200000D03*
%TD*%
D13*
%TO.C,BOOT1*%
X72425000Y3175000D03*
X72425000Y1025000D03*
X76575000Y3175000D03*
X76575000Y1025000D03*
%TD*%
D14*
%TO.C,DVI1*%
X22650000Y62950000D03*
D15*
X22650000Y56900000D03*
D14*
X38350000Y62950000D03*
D15*
X38350000Y56900000D03*
D16*
X26000000Y55950000D03*
X26500000Y55950000D03*
X27000000Y55950000D03*
X27500000Y55950000D03*
X28000000Y55950000D03*
X28500000Y55950000D03*
X29000000Y55950000D03*
X29500000Y55950000D03*
X30000000Y55950000D03*
X30500000Y55950000D03*
X31000000Y55950000D03*
X31500000Y55950000D03*
X32000000Y55950000D03*
X32500000Y55950000D03*
X33000000Y55950000D03*
X33500000Y55950000D03*
X34000000Y55950000D03*
X34500000Y55950000D03*
X35000000Y55950000D03*
%TD*%
D11*
%TO.C,R62*%
X29000000Y51392000D03*
X29000000Y52408000D03*
%TD*%
%TO.C,R61*%
X28000000Y51392000D03*
X28000000Y52408000D03*
%TD*%
%TO.C,R64*%
X31000000Y51392000D03*
X31000000Y52408000D03*
%TD*%
%TO.C,R65*%
X32000000Y51392000D03*
X32000000Y52408000D03*
%TD*%
D12*
%TO.C,FID1*%
X7000000Y5750000D03*
%TD*%
D10*
%TO.C,R11*%
X53008000Y27450000D03*
X51992000Y27450000D03*
%TD*%
D17*
%TO.C,C45*%
X25000000Y36289000D03*
X25000000Y34511000D03*
%TD*%
D11*
%TO.C,C65*%
X70467000Y42069000D03*
X70467000Y43085000D03*
%TD*%
%TO.C,R80*%
X66276000Y44228000D03*
X66276000Y45244000D03*
%TD*%
%TO.C,C78*%
X67673000Y43085000D03*
X67673000Y42069000D03*
%TD*%
D10*
%TO.C,R24*%
X23392000Y48600000D03*
X24408000Y48600000D03*
%TD*%
%TO.C,R38*%
X40200000Y41800000D03*
X41216000Y41800000D03*
%TD*%
D18*
%TO.C,LED_HOST4*%
X33762000Y2000000D03*
X32238000Y2000000D03*
%TD*%
D19*
%TO.C,U1*%
X51765000Y37905000D03*
X51765000Y36635000D03*
X51765000Y35365000D03*
X51765000Y34095000D03*
X58235000Y34095000D03*
X58235000Y35365000D03*
X58235000Y36635000D03*
X58235000Y37905000D03*
%TD*%
D20*
%TO.C,FB1*%
X66149000Y49816000D03*
X66149000Y47784000D03*
%TD*%
D11*
%TO.C,C8*%
X38700000Y19608000D03*
X38700000Y18592000D03*
%TD*%
D10*
%TO.C,R15*%
X3508000Y53000000D03*
X2492000Y53000000D03*
%TD*%
D20*
%TO.C,R99*%
X70086000Y44736000D03*
X72118000Y44736000D03*
%TD*%
%TO.C,C89*%
X64117000Y44609000D03*
X62085000Y44609000D03*
%TD*%
D10*
%TO.C,C52*%
X60053000Y26829000D03*
X59037000Y26829000D03*
%TD*%
D21*
%TO.C,C15*%
X50782000Y24933000D03*
X50782000Y23867000D03*
%TD*%
D11*
%TO.C,C4*%
X44700000Y36792000D03*
X44700000Y37808000D03*
%TD*%
D22*
%TO.C,U4*%
X21300000Y36175000D03*
X20800000Y36175000D03*
X20300000Y36175000D03*
X21300000Y34625000D03*
X20800000Y34625000D03*
X20300000Y34625000D03*
%TD*%
D10*
%TO.C,C13*%
X52052000Y29877000D03*
X53068000Y29877000D03*
%TD*%
D11*
%TO.C,C61*%
X62593000Y27083000D03*
X62593000Y28099000D03*
%TD*%
D23*
%TO.C,Line-In1*%
X44850000Y63525000D03*
X44850000Y60725000D03*
D24*
X52250000Y58825000D03*
D25*
X44850000Y51325000D03*
D26*
X49500000Y47775000D03*
%TD*%
D11*
%TO.C,R103*%
X39700000Y19608000D03*
X39700000Y18592000D03*
%TD*%
D10*
%TO.C,C27*%
X30992000Y20300000D03*
X32008000Y20300000D03*
%TD*%
D11*
%TO.C,R49*%
X25200000Y27592000D03*
X25200000Y28608000D03*
%TD*%
D10*
%TO.C,C60*%
X66149000Y20098000D03*
X67165000Y20098000D03*
%TD*%
D23*
%TO.C,HEADSETS1*%
X57350000Y63500000D03*
X57350000Y60700000D03*
D24*
X64750000Y58800000D03*
D25*
X57350000Y51300000D03*
D26*
X62000000Y47750000D03*
%TD*%
D17*
%TO.C,R2*%
X42200000Y56189000D03*
X42200000Y54411000D03*
%TD*%
D11*
%TO.C,R35*%
X47600000Y19616000D03*
X47600000Y18600000D03*
%TD*%
D10*
%TO.C,C85*%
X63228000Y31250000D03*
X64244000Y31250000D03*
%TD*%
D11*
%TO.C,C70*%
X60561000Y42492000D03*
X60561000Y43508000D03*
%TD*%
%TO.C,R46*%
X67673000Y28099000D03*
X67673000Y27083000D03*
%TD*%
%TO.C,R95*%
X54200000Y18208000D03*
X54200000Y17192000D03*
%TD*%
D27*
%TO.C,C40*%
X15800000Y15216000D03*
X15800000Y13184000D03*
%TD*%
D28*
%TO.C,FET2*%
X72432960Y20824440D03*
X70530500Y20824440D03*
X71485540Y18614640D03*
%TD*%
D27*
%TO.C,C44*%
X13400000Y15216000D03*
X13400000Y13184000D03*
%TD*%
D11*
%TO.C,R97*%
X56200000Y18208000D03*
X56200000Y17192000D03*
%TD*%
D10*
%TO.C,C22*%
X29408000Y29000000D03*
X28392000Y29000000D03*
%TD*%
D29*
%TO.C,MICRO_SD1*%
X68950000Y14370000D03*
D30*
X54150000Y14370000D03*
D31*
X69850000Y4770000D03*
X54150000Y4770000D03*
D32*
X64250000Y15250000D03*
X63150000Y15250000D03*
X62050000Y15250000D03*
X60950000Y15250000D03*
X59850000Y15250000D03*
X58750000Y15250000D03*
X57650000Y15250000D03*
X56550000Y15250000D03*
X55450000Y15250000D03*
%TD*%
D10*
%TO.C,C51*%
X60307000Y23019000D03*
X59291000Y23019000D03*
%TD*%
D11*
%TO.C,C71*%
X58148000Y21495000D03*
X58148000Y22511000D03*
%TD*%
%TO.C,R52*%
X27500000Y42892000D03*
X27500000Y43908000D03*
%TD*%
D10*
%TO.C,C5*%
X42692000Y37800000D03*
X43708000Y37800000D03*
%TD*%
D11*
%TO.C,R79*%
X55354000Y56293000D03*
X55354000Y55277000D03*
%TD*%
D20*
%TO.C,C32*%
X28716000Y9300000D03*
X26684000Y9300000D03*
%TD*%
D10*
%TO.C,C88*%
X62466000Y43085000D03*
X63482000Y43085000D03*
%TD*%
D17*
%TO.C,C35*%
X18400000Y36389000D03*
X18400000Y34611000D03*
%TD*%
D10*
%TO.C,R70*%
X12692000Y56200000D03*
X13708000Y56200000D03*
%TD*%
%TO.C,R76*%
X36192000Y42700000D03*
X37208000Y42700000D03*
%TD*%
D21*
%TO.C,C14*%
X49639000Y24933000D03*
X49639000Y23867000D03*
%TD*%
D18*
%TO.C,LED_HOST3*%
X33762000Y6000000D03*
X32238000Y6000000D03*
%TD*%
D33*
%TO.C,U2*%
X11000000Y44950000D03*
X11000000Y44000000D03*
X11000000Y43050000D03*
X13600000Y43050000D03*
X13600000Y44950000D03*
%TD*%
D20*
%TO.C,C80*%
X59484000Y17700000D03*
X61516000Y17700000D03*
%TD*%
D11*
%TO.C,C77*%
X68943000Y32163000D03*
X68943000Y31147000D03*
%TD*%
D34*
%TO.C,LSPK1*%
X74850000Y62850000D03*
D35*
X72500000Y57150000D03*
X70500000Y57150000D03*
D34*
X68150000Y62850000D03*
%TD*%
D20*
%TO.C,C86*%
X59384000Y31900000D03*
X61416000Y31900000D03*
%TD*%
D10*
%TO.C,C29*%
X20008000Y13100000D03*
X18992000Y13100000D03*
%TD*%
D27*
%TO.C,C46*%
X40500000Y15116000D03*
X40500000Y13084000D03*
%TD*%
D10*
%TO.C,R27*%
X30992000Y11500000D03*
X32008000Y11500000D03*
%TD*%
D27*
%TO.C,L6*%
X49516000Y44800000D03*
X47484000Y44800000D03*
%TD*%
D18*
%TO.C,CHARGING1*%
X5238000Y53000000D03*
X6762000Y53000000D03*
%TD*%
D11*
%TO.C,R92*%
X69500000Y18208000D03*
X69500000Y17192000D03*
%TD*%
D10*
%TO.C,C24*%
X40292000Y46800000D03*
X41308000Y46800000D03*
%TD*%
D36*
%TO.C,D7*%
X15500000Y54100000D03*
X10500000Y54100000D03*
%TD*%
D10*
%TO.C,C10*%
X51671000Y21368000D03*
X52687000Y21368000D03*
%TD*%
D17*
%TO.C,C38*%
X18000000Y45411000D03*
X18000000Y47189000D03*
%TD*%
D10*
%TO.C,R58*%
X11908000Y56200000D03*
X10892000Y56200000D03*
%TD*%
D20*
%TO.C,C23*%
X41816000Y48600000D03*
X39784000Y48600000D03*
%TD*%
D11*
%TO.C,C68*%
X53195000Y56293000D03*
X53195000Y55277000D03*
%TD*%
D10*
%TO.C,R20*%
X18992000Y21700000D03*
X20008000Y21700000D03*
%TD*%
D37*
%TO.C,UEXT1*%
X82125000Y44830000D03*
X75875000Y44830000D03*
X82125000Y42290000D03*
X75875000Y42290000D03*
X82125000Y39750000D03*
X75875000Y39750000D03*
X82125000Y37210000D03*
X75875000Y37210000D03*
X82125000Y34670000D03*
X75875000Y34670000D03*
%TD*%
D17*
%TO.C,C75*%
X65895000Y54896000D03*
X65895000Y53118000D03*
%TD*%
D10*
%TO.C,R33*%
X26592000Y4000000D03*
X27608000Y4000000D03*
%TD*%
D11*
%TO.C,C48*%
X41200000Y43908000D03*
X41200000Y42892000D03*
%TD*%
D10*
%TO.C,R56*%
X67292000Y24924000D03*
X68308000Y24924000D03*
%TD*%
%TO.C,R72*%
X33508000Y32300000D03*
X32492000Y32300000D03*
%TD*%
D11*
%TO.C,C93*%
X81389000Y51848000D03*
X81389000Y52864000D03*
%TD*%
D19*
%TO.C,U10*%
X52400000Y43655000D03*
X52400000Y42385000D03*
X52400000Y41115000D03*
X52400000Y39845000D03*
X57600000Y39845000D03*
X57600000Y41115000D03*
X57600000Y42385000D03*
X57600000Y43655000D03*
%TD*%
%TO.C,U9*%
X51765000Y43655000D03*
X51765000Y42385000D03*
X51765000Y41115000D03*
X51765000Y39845000D03*
X58235000Y39845000D03*
X58235000Y41115000D03*
X58235000Y42385000D03*
X58235000Y43655000D03*
%TD*%
D10*
%TO.C,R37*%
X49092000Y18066000D03*
X50108000Y18066000D03*
%TD*%
%TO.C,C2*%
X12700000Y41700000D03*
X11684000Y41700000D03*
%TD*%
%TO.C,R55*%
X67292000Y25940000D03*
X68308000Y25940000D03*
%TD*%
%TO.C,C7*%
X33508000Y28800000D03*
X32492000Y28800000D03*
%TD*%
%TO.C,R29*%
X20008000Y19700000D03*
X18992000Y19700000D03*
%TD*%
%TO.C,R17*%
X11308000Y17100000D03*
X10292000Y17100000D03*
%TD*%
D11*
%TO.C,R40*%
X32500000Y44994540D03*
X32500000Y46010540D03*
%TD*%
%TO.C,C94*%
X68689000Y44228000D03*
X68689000Y45244000D03*
%TD*%
D10*
%TO.C,C11*%
X52052000Y30766000D03*
X53068000Y30766000D03*
%TD*%
%TO.C,C58*%
X67292000Y21114000D03*
X68308000Y21114000D03*
%TD*%
D13*
%TO.C,T2*%
X57142560Y47199960D03*
X57142560Y45297500D03*
X59352360Y46252540D03*
%TD*%
D11*
%TO.C,C92*%
X67292000Y44228000D03*
X67292000Y45244000D03*
%TD*%
%TO.C,R47*%
X70848000Y23654000D03*
X70848000Y22638000D03*
%TD*%
D17*
%TO.C,R5*%
X40400000Y56189000D03*
X40400000Y54411000D03*
%TD*%
D13*
%TO.C,FET5*%
X31107440Y40550039D03*
X31107440Y42452499D03*
X28897640Y41497459D03*
%TD*%
D10*
%TO.C,R90*%
X67408000Y16200000D03*
X66392000Y16200000D03*
%TD*%
D17*
%TO.C,C66*%
X67419000Y53118000D03*
X67419000Y54896000D03*
%TD*%
D11*
%TO.C,R83*%
X67927000Y31147000D03*
X67927000Y32163000D03*
%TD*%
%TO.C,R68*%
X69959000Y31147000D03*
X69959000Y32163000D03*
%TD*%
D10*
%TO.C,C12*%
X52052000Y28607000D03*
X53068000Y28607000D03*
%TD*%
D38*
%TO.C,U6*%
X29031500Y13160000D03*
X29031500Y13800000D03*
X29031500Y14440000D03*
X29031500Y15080000D03*
X29031500Y15720000D03*
X29031500Y16360000D03*
X29031500Y17000000D03*
X29031500Y17640000D03*
X29031500Y18280000D03*
X29031500Y18920000D03*
X29031500Y19560000D03*
X29031500Y20200000D03*
X29031500Y20840000D03*
X29031500Y21480000D03*
X23531500Y21480000D03*
X23531500Y20840000D03*
X23531500Y20200000D03*
X23531500Y19560000D03*
X23531500Y18920000D03*
X23531500Y18280000D03*
X23531500Y17640000D03*
X23531500Y17000000D03*
X23531500Y16360000D03*
X23531500Y15720000D03*
X23531500Y15080000D03*
X23531500Y14440000D03*
X23531500Y13800000D03*
X23531500Y13160000D03*
%TD*%
D36*
%TO.C,D4*%
X26750000Y41200000D03*
X21750000Y41200000D03*
%TD*%
D17*
%TO.C,C64*%
X52941000Y51721000D03*
X52941000Y49943000D03*
%TD*%
D11*
%TO.C,R85*%
X41000000Y18592000D03*
X41000000Y19608000D03*
%TD*%
D18*
%TO.C,Act/Sus1*%
X30762000Y4000000D03*
X29238000Y4000000D03*
%TD*%
D11*
%TO.C,R81*%
X70975000Y32163000D03*
X70975000Y31147000D03*
%TD*%
%TO.C,C56*%
X46700000Y43408000D03*
X46700000Y42392000D03*
%TD*%
D13*
%TO.C,T1*%
X24507440Y23550040D03*
X24507440Y25452500D03*
X22297640Y24497460D03*
%TD*%
D33*
%TO.C,U7*%
X22600100Y45350000D03*
X22600100Y46300000D03*
X22600100Y47250000D03*
X19999900Y47250000D03*
X19999900Y46300000D03*
X19999900Y45350000D03*
%TD*%
D10*
%TO.C,R13*%
X32492000Y27500000D03*
X33508000Y27500000D03*
%TD*%
%TO.C,C87*%
X63482000Y42069000D03*
X62466000Y42069000D03*
%TD*%
D13*
%TO.C,FET4*%
X31107440Y44552580D03*
X31107440Y46455040D03*
X28897640Y45500000D03*
%TD*%
D10*
%TO.C,C6*%
X33508000Y31100000D03*
X32492000Y31100000D03*
%TD*%
D11*
%TO.C,R6*%
X49700000Y39808000D03*
X49700000Y38792000D03*
%TD*%
D10*
%TO.C,C26*%
X20008000Y16100000D03*
X18992000Y16100000D03*
%TD*%
%TO.C,C63*%
X71102000Y30004000D03*
X70086000Y30004000D03*
%TD*%
D33*
%TO.C,U5*%
X33800100Y8550000D03*
X33800100Y9500000D03*
X33800100Y10450000D03*
X31199900Y10450000D03*
X31199900Y9500000D03*
X31199900Y8550000D03*
%TD*%
D10*
%TO.C,R30*%
X20008000Y20700000D03*
X18992000Y20700000D03*
%TD*%
%TO.C,R9*%
X51671000Y20479000D03*
X52687000Y20479000D03*
%TD*%
D17*
%TO.C,R43*%
X45789000Y45300000D03*
X44011000Y45300000D03*
%TD*%
D11*
%TO.C,R102*%
X46400000Y19608000D03*
X46400000Y18592000D03*
%TD*%
%TO.C,R93*%
X66276000Y18193000D03*
X66276000Y17177000D03*
%TD*%
%TO.C,R50*%
X65641000Y27083000D03*
X65641000Y28099000D03*
%TD*%
D39*
%TO.C,Q2*%
X34400000Y15200000D03*
X36000000Y13000000D03*
X36000000Y15200000D03*
X34400000Y13000000D03*
%TD*%
D11*
%TO.C,R12*%
X51163000Y18447000D03*
X51163000Y19463000D03*
%TD*%
%TO.C,C62*%
X65133000Y18447000D03*
X65133000Y19463000D03*
%TD*%
D10*
%TO.C,R28*%
X34008000Y11500000D03*
X32992000Y11500000D03*
%TD*%
D40*
%TO.C,USB-PGM1*%
X6030000Y10072400D03*
X6030000Y19927600D03*
D41*
X1850000Y10072400D03*
X1850000Y19927600D03*
D42*
X6030000Y10072400D03*
X6030000Y19927600D03*
D43*
X1850000Y10072400D03*
X1850000Y19927600D03*
D44*
X6932000Y18325000D03*
X6932000Y17525000D03*
D45*
X6932000Y16250000D03*
X6932000Y15250000D03*
X6932000Y14750000D03*
X6932000Y13750000D03*
D44*
X6932000Y12475000D03*
X6932000Y11675000D03*
X6932000Y11925000D03*
X6932000Y12725000D03*
D45*
X6932000Y13250000D03*
X6932000Y14250000D03*
X6932000Y15750000D03*
X6932000Y16750000D03*
D44*
X6932000Y17275000D03*
X6932000Y18075000D03*
%TD*%
D10*
%TO.C,R32*%
X20008000Y14100000D03*
X18992000Y14100000D03*
%TD*%
D27*
%TO.C,FB3*%
X70594000Y48927000D03*
X72626000Y48927000D03*
%TD*%
D11*
%TO.C,R87*%
X67292000Y18208000D03*
X67292000Y17192000D03*
%TD*%
D13*
%TO.C,FET1*%
X20892560Y52449960D03*
X20892560Y50547500D03*
X23102360Y51502540D03*
%TD*%
D46*
%TO.C,RM1*%
X59032500Y25714000D03*
X60057500Y25714000D03*
D47*
X59032500Y25174000D03*
X60057500Y25174000D03*
X59032500Y24674000D03*
X60057500Y24674000D03*
D46*
X59032500Y24134000D03*
X60057500Y24134000D03*
%TD*%
D11*
%TO.C,C49*%
X66657000Y27083000D03*
X66657000Y28099000D03*
%TD*%
D28*
%TO.C,D5*%
X30500000Y38600000D03*
X26700000Y38600000D03*
%TD*%
D10*
%TO.C,C83*%
X72499000Y42069000D03*
X71483000Y42069000D03*
%TD*%
%TO.C,R71*%
X32492000Y33500000D03*
X33508000Y33500000D03*
%TD*%
D11*
%TO.C,R100*%
X46700000Y36792000D03*
X46700000Y37808000D03*
%TD*%
%TO.C,R94*%
X55862000Y22257000D03*
X55862000Y21241000D03*
%TD*%
D13*
%TO.C,T3*%
X52642560Y47199960D03*
X52642560Y45297500D03*
X54852360Y46252540D03*
%TD*%
D11*
%TO.C,R51*%
X27500000Y45808000D03*
X27500000Y44792000D03*
%TD*%
%TO.C,C9*%
X42000000Y19608000D03*
X42000000Y18592000D03*
%TD*%
%TO.C,R57*%
X47900000Y43408000D03*
X47900000Y42392000D03*
%TD*%
D39*
%TO.C,Q1*%
X29700000Y25300000D03*
X28100000Y27500000D03*
X28100000Y25300000D03*
X29700000Y27500000D03*
%TD*%
D13*
%TO.C,D6*%
X34000000Y46500000D03*
X34000000Y42700000D03*
%TD*%
D11*
%TO.C,R18*%
X49700000Y37808000D03*
X49700000Y36792000D03*
%TD*%
D10*
%TO.C,R75*%
X37208000Y47700000D03*
X36192000Y47700000D03*
%TD*%
D11*
%TO.C,R44*%
X68689000Y28099000D03*
X68689000Y27083000D03*
%TD*%
%TO.C,R86*%
X68562000Y18208000D03*
X68562000Y17192000D03*
%TD*%
%TO.C,C76*%
X71991000Y31147000D03*
X71991000Y32163000D03*
%TD*%
%TO.C,R89*%
X55200000Y18208000D03*
X55200000Y17192000D03*
%TD*%
D20*
%TO.C,FB2*%
X68054000Y49816000D03*
X68054000Y47784000D03*
%TD*%
D11*
%TO.C,C18*%
X43100000Y19608000D03*
X43100000Y18592000D03*
%TD*%
D10*
%TO.C,R104*%
X80246000Y54007000D03*
X81262000Y54007000D03*
%TD*%
%TO.C,R22*%
X32008000Y21500000D03*
X30992000Y21500000D03*
%TD*%
D13*
%TO.C,RST1*%
X72425000Y7325000D03*
X72425000Y5175000D03*
X76575000Y7325000D03*
X76575000Y5175000D03*
%TD*%
D11*
%TO.C,C54*%
X22800000Y27592000D03*
X22800000Y28608000D03*
%TD*%
%TO.C,R73*%
X57132000Y22511000D03*
X57132000Y21495000D03*
%TD*%
D27*
%TO.C,C67*%
X20000000Y59716000D03*
X20000000Y57684000D03*
%TD*%
D10*
%TO.C,C28*%
X30992000Y19100000D03*
X32008000Y19100000D03*
%TD*%
D28*
%TO.C,FET6*%
X35750040Y44092560D03*
X37652500Y44092560D03*
X36697460Y46302360D03*
%TD*%
D10*
%TO.C,R31*%
X20008000Y15100000D03*
X18992000Y15100000D03*
%TD*%
%TO.C,C20*%
X50401000Y20479000D03*
X49385000Y20479000D03*
%TD*%
D11*
%TO.C,C30*%
X32700000Y14692000D03*
X32700000Y15708000D03*
%TD*%
D17*
%TO.C,C39*%
X16000000Y45411000D03*
X16000000Y47189000D03*
%TD*%
D43*
%TO.C,L2*%
X52500000Y25100000D03*
X52500000Y23700000D03*
%TD*%
D11*
%TO.C,C19*%
X49639000Y22104600D03*
X49639000Y23120600D03*
%TD*%
D10*
%TO.C,C47*%
X50147000Y19463000D03*
X49131000Y19463000D03*
%TD*%
D17*
%TO.C,R4*%
X41689000Y52800000D03*
X39911000Y52800000D03*
%TD*%
D11*
%TO.C,R26*%
X19600000Y33208000D03*
X19600000Y32192000D03*
%TD*%
D48*
%TO.C,D3*%
X18397000Y50500000D03*
X18397000Y55500000D03*
%TD*%
D18*
%TO.C,LED1*%
X5238000Y50000000D03*
X6762000Y50000000D03*
%TD*%
D11*
%TO.C,C43*%
X18000000Y20708000D03*
X18000000Y19692000D03*
%TD*%
D10*
%TO.C,C25*%
X20008000Y17100000D03*
X18992000Y17100000D03*
%TD*%
%TO.C,C17*%
X33508000Y26500000D03*
X32492000Y26500000D03*
%TD*%
D13*
%TO.C,T4*%
X57096440Y30197040D03*
X57096440Y32099500D03*
X54886640Y31144460D03*
%TD*%
D10*
%TO.C,C21*%
X29408000Y23800000D03*
X28392000Y23800000D03*
%TD*%
%TO.C,R16*%
X12800000Y46300000D03*
X11784000Y46300000D03*
%TD*%
%TO.C,R21*%
X18992000Y18500000D03*
X20008000Y18500000D03*
%TD*%
D49*
%TO.C,USB-PWR1*%
X7572400Y59220000D03*
X17427600Y59220000D03*
D50*
X7572400Y63400000D03*
X17427600Y63400000D03*
D51*
X7572400Y59220000D03*
X17427600Y59220000D03*
D52*
X7572400Y63400000D03*
X17427600Y63400000D03*
D53*
X15825000Y58318000D03*
X15025000Y58318000D03*
D54*
X13750000Y58318000D03*
X12750000Y58318000D03*
X12250000Y58318000D03*
X11250000Y58318000D03*
D53*
X9975000Y58318000D03*
X9175000Y58318000D03*
X9425000Y58318000D03*
X10225000Y58318000D03*
D54*
X10750000Y58318000D03*
X11750000Y58318000D03*
X13250000Y58318000D03*
X14250000Y58318000D03*
D53*
X14775000Y58318000D03*
X15575000Y58318000D03*
%TD*%
D11*
%TO.C,R88*%
X58200000Y18208000D03*
X58200000Y17192000D03*
%TD*%
%TO.C,R25*%
X20800000Y33208000D03*
X20800000Y32192000D03*
%TD*%
D10*
%TO.C,C16*%
X42692000Y36800000D03*
X43708000Y36800000D03*
%TD*%
D36*
%TO.C,D1*%
X15800000Y19450000D03*
X10800000Y19450000D03*
%TD*%
D11*
%TO.C,R54*%
X24000000Y27592000D03*
X24000000Y28608000D03*
%TD*%
D17*
%TO.C,C34*%
X26189000Y47200000D03*
X24411000Y47200000D03*
%TD*%
D11*
%TO.C,C1*%
X60561000Y36608000D03*
X60561000Y37624000D03*
%TD*%
%TO.C,C90*%
X71356000Y51848000D03*
X71356000Y52864000D03*
%TD*%
D10*
%TO.C,R91*%
X70340000Y54007000D03*
X71356000Y54007000D03*
%TD*%
D11*
%TO.C,R7*%
X33891000Y23692000D03*
X33891000Y24708000D03*
%TD*%
D36*
%TO.C,D2*%
X15500000Y50600000D03*
X10500000Y50600000D03*
%TD*%
D17*
%TO.C,R39*%
X40711000Y45300000D03*
X42489000Y45300000D03*
%TD*%
%TO.C,C74*%
X54465000Y49943000D03*
X54465000Y51721000D03*
%TD*%
D28*
%TO.C,FET3*%
X72432960Y27682440D03*
X70530500Y27682440D03*
X71485540Y25472640D03*
%TD*%
D10*
%TO.C,R96*%
X53192000Y16200000D03*
X54208000Y16200000D03*
%TD*%
D55*
%TO.C,U11*%
X62805000Y34200000D03*
X64075000Y34200000D03*
X65345000Y34200000D03*
X66615000Y34200000D03*
X67885000Y34200000D03*
X69155000Y34200000D03*
X70425000Y34200000D03*
X71695000Y34200000D03*
X71695000Y39800000D03*
X70425000Y39800000D03*
X69155000Y39800000D03*
X67885000Y39800000D03*
X66615000Y39800000D03*
X65345000Y39800000D03*
X64075000Y39800000D03*
X62805000Y39800000D03*
%TD*%
D17*
%TO.C,C42*%
X23200000Y36289000D03*
X23200000Y34511000D03*
%TD*%
D13*
%TO.C,D8*%
X36700000Y53000000D03*
X36700000Y49200000D03*
%TD*%
D10*
%TO.C,R74*%
X3408000Y50000000D03*
X2392000Y50000000D03*
%TD*%
D17*
%TO.C,C33*%
X16600000Y36389000D03*
X16600000Y34611000D03*
%TD*%
D10*
%TO.C,C82*%
X71483000Y43085000D03*
X72499000Y43085000D03*
%TD*%
D27*
%TO.C,C41*%
X38200000Y15116000D03*
X38200000Y13084000D03*
%TD*%
D10*
%TO.C,R1*%
X3508000Y56000000D03*
X2492000Y56000000D03*
%TD*%
D27*
%TO.C,L7*%
X61704000Y19600000D03*
X59672000Y19600000D03*
%TD*%
D11*
%TO.C,R78*%
X49700000Y42492000D03*
X49700000Y43508000D03*
%TD*%
%TO.C,R41*%
X32500000Y40991999D03*
X32500000Y42007999D03*
%TD*%
%TO.C,C81*%
X70213000Y51848000D03*
X70213000Y52864000D03*
%TD*%
%TO.C,C73*%
X60307000Y22130000D03*
X60307000Y21114000D03*
%TD*%
%TO.C,R42*%
X64498000Y43085000D03*
X64498000Y42069000D03*
%TD*%
D18*
%TO.C,LED_HOST1*%
X27762000Y6000000D03*
X26238000Y6000000D03*
%TD*%
D10*
%TO.C,R77*%
X65641000Y43085000D03*
X66657000Y43085000D03*
%TD*%
D11*
%TO.C,R82*%
X68689000Y42069000D03*
X68689000Y43085000D03*
%TD*%
D10*
%TO.C,C79*%
X66657000Y42069000D03*
X65641000Y42069000D03*
%TD*%
%TO.C,R36*%
X50108000Y17177000D03*
X49092000Y17177000D03*
%TD*%
D11*
%TO.C,C37*%
X22000000Y33208000D03*
X22000000Y32192000D03*
%TD*%
%TO.C,R45*%
X71991000Y22638000D03*
X71991000Y23654000D03*
%TD*%
D27*
%TO.C,L1*%
X39784000Y50800000D03*
X41816000Y50800000D03*
%TD*%
D56*
%TO.C,U8*%
X65600000Y22500000D03*
X65600000Y22900000D03*
X65600000Y23300000D03*
X65600000Y23700000D03*
X65600000Y24100000D03*
D57*
X64900000Y21800000D03*
X64900000Y24800000D03*
D58*
X64750000Y23300000D03*
D57*
X64500000Y21800000D03*
X64500000Y24800000D03*
X64100000Y21800000D03*
D59*
X64100000Y22650000D03*
X64100000Y23950000D03*
D57*
X64100000Y24800000D03*
X63700000Y21800000D03*
X63700000Y24800000D03*
D58*
X63450000Y23300000D03*
D57*
X63300000Y21800000D03*
X63300000Y24800000D03*
D56*
X62600000Y22500000D03*
X62600000Y22900000D03*
X62600000Y23300000D03*
X62600000Y23700000D03*
X62600000Y24100000D03*
%TD*%
D10*
%TO.C,R19*%
X28092000Y11000000D03*
X29108000Y11000000D03*
%TD*%
D17*
%TO.C,R67*%
X20000000Y61411000D03*
X20000000Y63189000D03*
%TD*%
%TO.C,C36*%
X26189000Y45400000D03*
X24411000Y45400000D03*
%TD*%
D10*
%TO.C,R23*%
X26408000Y48600000D03*
X25392000Y48600000D03*
%TD*%
D27*
%TO.C,FB4*%
X72626000Y46895000D03*
X70594000Y46895000D03*
%TD*%
D11*
%TO.C,R69*%
X69578000Y43085000D03*
X69578000Y42069000D03*
%TD*%
%TO.C,R98*%
X57200000Y18208000D03*
X57200000Y17192000D03*
%TD*%
D52*
%TO.C,L4*%
X21500000Y38300000D03*
X20100000Y38300000D03*
%TD*%
D11*
%TO.C,C72*%
X59291000Y21114000D03*
X59291000Y22130000D03*
%TD*%
%TO.C,C91*%
X80246000Y52864000D03*
X80246000Y51848000D03*
%TD*%
D10*
%TO.C,R10*%
X53008000Y26350000D03*
X51992000Y26350000D03*
%TD*%
D60*
%TO.C,L3*%
X19350000Y41950000D03*
X16150000Y41950000D03*
%TD*%
D18*
%TO.C,PWR_LED1*%
X5238000Y56000000D03*
X6762000Y56000000D03*
%TD*%
D61*
%TO.C,BAT1*%
X3775000Y47300000D03*
D62*
X7400000Y45000000D03*
X7400000Y43000000D03*
D61*
X3775000Y40700000D03*
%TD*%
D11*
%TO.C,C31*%
X32700000Y13508000D03*
X32700000Y12492000D03*
%TD*%
D27*
%TO.C,L5*%
X57894000Y28480000D03*
X59926000Y28480000D03*
%TD*%
D11*
%TO.C,C69*%
X44178000Y49435000D03*
X44178000Y48419000D03*
%TD*%
D10*
%TO.C,R14*%
X11308000Y13500000D03*
X10292000Y13500000D03*
%TD*%
D18*
%TO.C,LED_HOST2*%
X27762000Y2000000D03*
X26238000Y2000000D03*
%TD*%
D63*
%TO.C,U3*%
X47396500Y24700000D03*
X47396500Y25100000D03*
X47396500Y25500000D03*
X47396500Y25900000D03*
X47396500Y26300000D03*
X47396500Y26700000D03*
X47396500Y27100000D03*
X47396500Y27500000D03*
X47396500Y27900000D03*
X47396500Y28300000D03*
X47396500Y28700000D03*
X47396500Y29100000D03*
X47396500Y29500000D03*
X47396500Y29900000D03*
X47396500Y30300000D03*
X47396500Y30700000D03*
X47396500Y31100000D03*
X47396500Y31500000D03*
X47396500Y31900000D03*
X47396500Y32300000D03*
D64*
X46300000Y23603500D03*
X46300000Y33396500D03*
X45900000Y23603500D03*
X45900000Y33396500D03*
X45500000Y23603500D03*
X45500000Y33396500D03*
X45100000Y23603500D03*
X45100000Y33396500D03*
X44700000Y23603500D03*
X44700000Y33396500D03*
X44300000Y23603500D03*
X44300000Y33396500D03*
X43900000Y23603500D03*
X43900000Y33396500D03*
D65*
X43750000Y28500000D03*
D64*
X43500000Y23603500D03*
X43500000Y33396500D03*
X43100000Y23603500D03*
X43100000Y33396500D03*
X42700000Y23603500D03*
X42700000Y33396500D03*
D66*
X42500000Y27300000D03*
X42500000Y29700000D03*
D64*
X42300000Y23603500D03*
X42300000Y33396500D03*
X41900000Y23603500D03*
X41900000Y33396500D03*
X41500000Y23603500D03*
X41500000Y33396500D03*
D65*
X41250000Y28500000D03*
D64*
X41100000Y23603500D03*
X41100000Y33396500D03*
X40700000Y23603500D03*
X40700000Y33396500D03*
X40300000Y23603500D03*
X40300000Y33396500D03*
X39900000Y23603500D03*
X39900000Y33396500D03*
X39500000Y23603500D03*
X39500000Y33396500D03*
X39100000Y23603500D03*
X39100000Y33396500D03*
X38700000Y23603500D03*
X38700000Y33396500D03*
D63*
X37603500Y24700000D03*
X37603500Y25100000D03*
X37603500Y25500000D03*
X37603500Y25900000D03*
X37603500Y26300000D03*
X37603500Y26700000D03*
X37603500Y27100000D03*
X37603500Y27500000D03*
X37603500Y27900000D03*
X37603500Y28300000D03*
X37603500Y28700000D03*
X37603500Y29100000D03*
X37603500Y29500000D03*
X37603500Y29900000D03*
X37603500Y30300000D03*
X37603500Y30700000D03*
X37603500Y31100000D03*
X37603500Y31500000D03*
X37603500Y31900000D03*
X37603500Y32300000D03*
%TD*%
D10*
%TO.C,R3*%
X20692000Y54900000D03*
X21708000Y54900000D03*
%TD*%
D11*
%TO.C,C57*%
X61577000Y28099000D03*
X61577000Y27083000D03*
%TD*%
%TO.C,C59*%
X63609000Y27083000D03*
X63609000Y28099000D03*
%TD*%
D37*
%TO.C,UEXT2*%
X82125000Y24080000D03*
X75875000Y24080000D03*
X82125000Y21540000D03*
X75875000Y21540000D03*
X82125000Y19000000D03*
X75875000Y19000000D03*
X82125000Y16460000D03*
X75875000Y16460000D03*
X82125000Y13920000D03*
X75875000Y13920000D03*
%TD*%
D34*
%TO.C,RSPK1*%
X83850000Y62850000D03*
D35*
X81500000Y57150000D03*
X79500000Y57150000D03*
D34*
X77150000Y62850000D03*
%TD*%
D11*
%TO.C,C55*%
X64625000Y27083000D03*
X64625000Y28099000D03*
%TD*%
D10*
%TO.C,R8*%
X51671000Y22257000D03*
X50655000Y22257000D03*
%TD*%
%TO.C,C50*%
X67292000Y23654000D03*
X68308000Y23654000D03*
%TD*%
%TO.C,C84*%
X64244000Y32163000D03*
X63228000Y32163000D03*
%TD*%
D11*
%TO.C,C3*%
X32400000Y24708000D03*
X32400000Y23692000D03*
%TD*%
D10*
%TO.C,R34*%
X46492000Y17000000D03*
X47508000Y17000000D03*
%TD*%
D33*
%TO.C,VR1*%
X42700000Y43850000D03*
X42700000Y42900000D03*
X42700000Y41950000D03*
X45300000Y41950000D03*
X45300000Y43850000D03*
%TD*%
M02*
