M48
; DRILL file {KiCad 7.0.9-7.0.9~ubuntu22.04.1} date 18.04.2025 (пт) 14:33:33
; FORMAT={-:-/ absolute / metric / decimal}
; #@! TF.CreationDate,2025-04-18T14:33:33+03:00
; #@! TF.GenerationSoftware,Kicad,Pcbnew,7.0.9-7.0.9~ubuntu22.04.1
; #@! TF.FileFunction,Plated,1,4,PTH
FMAT,2
METRIC
; #@! TA.AperFunction,Plated,PTH,ViaDrill
T1C0.400
; #@! TA.AperFunction,Plated,PTH,ViaDrill
T2C0.600
; #@! TA.AperFunction,Plated,PTH,ComponentDrill
T3C0.600
; #@! TA.AperFunction,Plated,PTH,ComponentDrill
T4C0.800
; #@! TA.AperFunction,Plated,PTH,ComponentDrill
T5C0.900
; #@! TA.AperFunction,Plated,PTH,ComponentDrill
T6C1.000
; #@! TA.AperFunction,Plated,PTH,ComponentDrill
T7C1.200
; #@! TA.AperFunction,Plated,PTH,ComponentDrill
T8C1.600
; #@! TA.AperFunction,Plated,PTH,ComponentDrill
T9C2.400
%
G90
G05
T1
X2.8Y51.2
X3.0Y32.2
X4.1Y54.95
X4.1Y54.05
X5.0Y54.95
X5.0Y54.05
X5.9Y54.95
X5.9Y54.05
X6.8Y54.95
X6.8Y54.05
X10.6Y59.6
X10.9Y17.9
X11.3Y14.3
X11.3Y12.7
X11.8Y17.9
X11.9Y57.0
X12.0Y13.5
X12.1Y15.0
X12.754Y57.0
X13.4Y16.3
X13.75Y44.0
X14.1Y46.346
X14.4Y59.6
X14.6Y44.0
X14.6Y16.3
X14.6Y15.2
X15.0Y46.6
X15.8Y16.3
X15.8Y11.2
X16.7Y10.7
X17.0Y15.2
X17.8Y18.9
X17.8Y17.8
X17.8Y10.4
X18.3Y21.7
X19.159Y25.94
X19.6Y36.3
X19.6Y34.6
X19.975Y29.415
X20.683Y26.575
X20.81Y30.258
X20.9Y19.077
X20.9Y16.1
X21.0Y20.9
X21.064Y24.099
X21.3Y48.0
X21.3Y47.15
X21.3Y46.3
X22.0Y30.3
X22.0Y28.6
X22.0Y27.6
X22.05Y36.0
X22.05Y35.1
X22.05Y34.2
X22.3Y48.3
X22.5Y25.7
X22.8Y22.4
X23.4Y28.6
X23.4Y25.7
X23.65Y46.3
X24.1Y33.5
X24.5Y46.3
X24.9Y17.0
X24.9Y16.0
X25.0Y0.9
X25.1Y18.0
X25.175Y56.4
X25.175Y55.5
X25.238Y21.623
X25.238Y20.697
X25.35Y54.2
X25.35Y53.3
X26.238Y3.2
X27.0Y31.7
X27.0Y28.9
X27.0Y26.4
X27.5Y0.9
X27.559Y48.092
X27.8Y4.9
X28.037Y50.464
X28.486Y48.092
X28.5Y43.9
X28.5Y39.1
X28.5Y38.3
X28.938Y33.179
X28.963Y50.464
X29.5Y35.491
X29.5Y34.564
X29.9Y28.6
X30.0Y2.75
X30.0Y0.9
X30.037Y49.1
X30.3Y11.7
X30.672Y36.272
X30.799Y4.965
X30.963Y49.1
X31.328Y36.928
X31.7Y4.965
X31.7Y4.0
X31.8Y28.8
X31.8Y26.5
X31.864Y39.236
X31.864Y38.309
X32.0Y22.4
X32.036Y50.5
X32.5Y31.7
X32.5Y10.9
X32.5Y0.9
X32.672Y37.172
X32.7Y21.5
X32.7Y20.3
X32.7Y19.1
X32.75Y54.56
X32.963Y50.5
X33.129Y24.67
X33.328Y37.828
X33.4Y7.0
X33.6Y23.0
X33.762Y5.1
X33.773Y54.55
X34.1Y31.1
X34.1Y28.8
X34.1Y26.5
X34.145Y22.003
X34.2Y51.4
X34.65Y11.15
X34.78Y20.86
X34.8Y44.4
X34.8Y43.5
X35.415Y33.687
X35.5Y46.012
X35.796Y21.876
X35.796Y19.336
X36.05Y20.86
X36.812Y23.654
X36.939Y33.687
X36.939Y19.336
X37.0Y11.7
X37.016Y15.116
X37.574Y39.402
X37.868Y23.868
X37.9Y33.1
X37.989Y18.791
X38.0Y19.844
X38.717Y39.402
X38.8Y48.8
X38.8Y30.7
X39.0Y27.9
X39.479Y24.848
X39.5Y31.7
X39.553Y20.318
X39.578Y40.903
X39.987Y21.368
X40.15Y47.45
X40.3Y18.6
X40.495Y39.402
X40.622Y24.797
X40.684Y40.926
X40.7Y32.2
X41.003Y20.86
X41.511Y40.164
X41.511Y21.749
X41.765Y24.797
X42.0Y37.8
X42.0Y36.8
X42.0Y20.3
X42.3Y32.2
X42.55Y18.6
X42.7Y38.4
X42.7Y36.1
X42.902Y24.802
X43.1Y20.3
X43.5Y31.7
X43.7Y35.0
X43.7Y38.4
X43.7Y37.3
X43.7Y36.1
X44.483Y20.073
X44.483Y18.879
X44.5Y31.7
X44.5Y15.8
X44.7Y38.4
X44.7Y36.1
X45.067Y48.673
X45.4Y39.7
X45.4Y20.6
X45.702Y16.085
X45.905Y30.205
X46.058Y29.09
X46.185Y26.81
X46.2Y31.7
X46.21Y25.432
X46.4Y20.6
X46.464Y17.9
X46.7Y38.7
X46.7Y36.1
X46.7Y39.7
X47.141Y12.368
X47.141Y11.441
X47.6Y33.56
X47.6Y17.9
X48.0Y37.7
X48.445Y34.22
X48.6Y29.902
X49.0Y25.6
X49.156Y31.426
X49.512Y34.554
X49.537Y29.344
X49.563Y40.5
X49.766Y16.39
X49.8Y25.6
X50.147Y31.754
X50.147Y18.752
X50.401Y23.273
X50.579Y29.775
X50.8Y26.0
X50.909Y16.415
X51.2Y31.8
X51.2Y32.9
X51.3Y25.4
X51.417Y47.911
X51.421Y28.988
X51.798Y51.467
X52.306Y29.242
X52.306Y22.511
X53.195Y53.753
X53.2Y15.5
X53.322Y22.511
X53.449Y29.242
X53.703Y38.386
X53.9Y32.925
X54.338Y47.911
X54.465Y61.373
X54.465Y54.261
X54.592Y29.242
X54.846Y18.828
X54.846Y13.113
X55.481Y32.798
X55.811Y19.412
X56.116Y26.702
X56.37Y27.718
X56.398Y25.686
X57.386Y23.527
X57.97Y25.0
X58.148Y27.083
X58.148Y26.067
X58.275Y45.117
X58.275Y32.798
X58.275Y31.909
X58.351Y20.581
X58.402Y23.527
X58.75Y16.361
X59.799Y16.542
X60.307Y13.621
X60.561Y41.688
X60.942Y24.543
X61.323Y37.878
X61.323Y36.862
X61.323Y22.511
X61.45Y42.831
X62.212Y21.749
X62.593Y50.705
X62.593Y25.94
X63.355Y19.844
X63.609Y45.879
X63.609Y28.734
X63.737Y41.068
X64.244Y55.658
X64.371Y20.352
X64.498Y38.132
X64.625Y50.832
X65.133Y17.431
X65.345Y35.465
X65.345Y32.29
X66.022Y51.467
X66.149Y46.514
X66.276Y41.053
X66.427Y28.837
X66.911Y32.29
X67.165Y38.132
X67.516Y22.651
X67.673Y18.955
X67.927Y43.974
X67.927Y41.307
X68.054Y30.385
X68.435Y38.005
X68.562Y22.257
X68.689Y46.514
X68.943Y51.594
X69.07Y30.385
X69.324Y20.352
X69.451Y48.546
X69.451Y47.403
X69.5Y18.955
X69.578Y25.178
X69.705Y38.005
X69.705Y22.257
X70.467Y8.287
X70.594Y41.307
X71.737Y8.541
X71.991Y22.003
X73.134Y13.875
X74.023Y43.593
X74.15Y20.098
X74.5Y7.325
X74.658Y33.179
X74.912Y38.513
X74.912Y36.227
X75.039Y28.861
X75.801Y15.399
X75.928Y41.18
X76.182Y38.513
X76.182Y35.719
X76.182Y33.179
X77.579Y20.352
X77.579Y9.303
X78.468Y26.702
X78.849Y39.275
X78.849Y37.37
X79.1Y17.3
X79.23Y21.241
X79.547Y13.176
X80.373Y26.702
X80.5Y51.086
X81.516Y18.0
X81.643Y25.559
T2
X1.0Y21.0
X1.0Y17.4
X1.0Y16.15
X1.0Y15.0
X1.0Y13.9
X1.0Y12.65
X1.125Y56.928
X1.4Y50.4
X1.4Y49.2
X1.4Y48.0
X1.4Y46.8
X1.4Y45.65
X1.4Y44.55
X1.4Y43.45
X1.4Y42.35
X1.4Y41.2
X1.4Y40.0
X1.4Y38.8
X2.2Y21.0
X2.2Y17.4
X2.2Y16.15
X2.2Y15.0
X2.2Y13.9
X2.2Y12.65
X2.6Y45.65
X2.6Y44.55
X2.6Y43.45
X2.6Y42.35
X3.4Y22.2
X3.4Y21.0
X3.4Y19.8
X3.4Y18.65
X3.4Y17.4
X3.4Y16.15
X3.4Y15.0
X3.4Y13.9
X3.4Y12.65
X3.4Y11.5
X3.4Y10.3
X3.4Y9.1
X3.4Y7.9
X4.4Y19.8
X4.4Y18.65
X4.4Y11.5
X4.4Y10.3
X4.5Y22.2
X4.5Y21.0
X4.6Y9.1
X4.6Y7.9
X4.9Y17.0
X4.9Y16.0
X4.9Y15.0
X4.9Y14.0
X4.9Y13.0
X5.6Y22.2
X5.6Y21.0
X5.8Y9.1
X5.8Y7.9
X6.4Y42.0
X6.4Y40.9
X6.4Y39.4
X6.4Y37.9
X6.4Y36.8
X6.4Y35.7
X6.7Y21.0
X7.0Y9.1
X7.0Y7.9
X7.5Y42.0
X7.5Y40.9
X7.5Y39.4
X7.5Y37.9
X7.5Y36.8
X7.5Y35.7
X7.5Y1.0
X7.55Y61.85
X7.55Y60.85
X8.2Y17.4
X8.2Y12.4
X8.6Y42.0
X8.6Y40.9
X8.6Y37.9
X8.6Y36.8
X8.6Y35.7
X8.7Y19.3
X8.7Y18.3
X8.7Y11.5
X8.8Y61.85
X8.8Y60.85
X8.85Y55.9
X8.85Y54.8
X8.85Y53.75
X8.9Y51.0
X8.9Y50.0
X9.2Y17.4
X9.2Y12.4
X9.5Y6.0
X9.7Y18.5
X9.7Y11.5
X9.85Y56.9
X9.85Y55.9
X10.0Y63.0
X10.0Y61.85
X10.0Y60.85
X10.0Y1.0
X11.0Y48.5
X11.0Y47.5
X11.5Y59.6
X12.0Y48.5
X12.0Y47.5
X12.1Y51.0
X12.1Y50.0
X12.5Y59.6
X12.5Y11.9
X12.5Y10.8
X12.5Y3.0
X12.5Y1.0
X12.661Y23.616
X13.0Y48.5
X13.0Y47.5
X13.1Y51.0
X13.1Y50.0
X13.5Y59.6
X13.6Y11.9
X13.6Y10.8
X14.3Y20.9
X14.3Y19.9
X14.3Y18.9
X14.3Y17.9
X14.7Y11.9
X14.8Y57.1
X14.8Y56.1
X15.0Y3.0
X15.0Y1.0
X15.15Y63.0
X15.15Y61.85
X15.15Y60.85
X15.3Y20.9
X15.3Y17.9
X15.8Y56.1
X16.3Y17.9
X16.4Y61.85
X16.4Y60.85
X17.0Y47.2
X17.5Y34.6
X17.5Y33.0
X17.5Y3.0
X17.5Y1.0
X17.6Y61.85
X17.6Y60.85
X18.4Y33.6
X18.4Y32.4
X20.0Y3.0
X20.0Y1.0
X20.5Y7.5
X22.5Y53.5
X22.5Y52.5
X22.5Y50.5
X22.5Y1.0
X22.7Y38.5
X22.7Y37.4
X23.2Y33.5
X23.6Y53.5
X23.6Y52.5
X23.6Y50.5
X23.8Y39.6
X23.8Y38.5
X23.8Y37.4
X24.1Y36.3
X24.1Y34.5
X24.9Y39.6
X24.9Y38.5
X24.9Y37.4
X25.0Y33.5
X25.1Y44.0
X25.1Y42.9
X25.1Y41.8
X26.189Y44.0
X26.189Y42.9
X26.3Y36.3
X26.3Y35.2
X26.3Y34.1
X26.3Y33.0
X27.4Y36.3
X27.4Y35.2
X27.4Y34.1
X27.4Y33.0
X28.0Y57.7
X28.75Y7.75
X29.319Y64.04
X29.5Y57.7
X29.7Y62.2
X29.8Y7.75
X30.9Y7.75
X31.0Y57.7
X31.25Y62.2
X32.5Y9.5
X32.9Y7.8
X33.9Y7.8
X34.2Y50.1
X34.2Y48.9
X35.0Y1.0
X35.3Y42.7
X36.1Y60.77
X36.1Y56.1
X36.7Y51.4
X36.7Y50.3
X37.5Y1.0
X39.35Y15.1
X39.6Y45.9
X40.0Y3.5
X40.0Y1.0
X40.114Y43.847
X42.146Y63.786
X42.5Y3.5
X42.5Y1.0
X43.035Y48.038
X43.035Y46.895
X43.2Y54.4
X43.2Y53.3
X44.3Y54.4
X44.3Y53.3
X45.0Y3.5
X45.0Y1.0
X47.353Y46.006
X47.5Y3.5
X47.5Y1.0
X48.115Y63.786
X48.496Y55.531
X49.639Y61.373
X50.0Y1.0
X50.147Y33.56
X50.782Y61.373
X51.036Y45.244
X52.5Y1.0
X54.084Y40.037
X55.0Y3.0
X55.0Y1.0
X57.5Y3.0
X57.5Y1.0
X58.402Y19.209
X59.545Y60.992
X59.672Y57.436
X60.0Y3.0
X60.0Y1.0
X60.688Y63.532
X60.815Y44.99
X62.466Y31.401
X62.5Y3.0
X62.5Y1.0
X63.863Y17.431
X64.752Y29.496
X65.0Y3.0
X65.0Y1.0
X65.717Y38.183
X66.657Y61.627
X66.911Y11.335
X67.419Y46.133
X67.5Y3.0
X67.5Y1.0
X68.943Y59.214
X70.0Y3.0
X70.0Y1.0
X71.61Y35.973
X72.372Y28.988
X72.88Y63.659
X73.388Y61.627
X74.5Y1.0
X75.674Y8.541
X76.436Y46.26
X76.563Y26.575
X76.563Y25.305
X76.563Y12.478
X77.198Y60.357
X77.579Y46.26
X78.0Y1.0
X78.087Y11.589
X78.976Y61.5
X78.976Y45.244
X80.627Y63.659
X82.913Y10.7
X83.675Y59.595
X83.675Y47.276
X83.675Y46.006
X83.675Y26.575
X83.675Y25.305
T3
X41.23Y29.7
X41.3Y27.3
X43.7Y29.7
X43.7Y27.3
T5
X64.1Y23.3
T6
X1.5Y8.0
X12.5Y8.62
X12.5Y6.0
X14.2Y37.35
X14.2Y34.81
X14.2Y32.27
X14.2Y29.73
X14.2Y27.19
X14.2Y24.65
X15.0Y8.62
X15.0Y6.0
X17.0Y8.62
X17.0Y6.0
X18.2Y29.74
X18.2Y27.2
X18.2Y24.66
X19.5Y8.62
X19.5Y6.0
X40.5Y8.62
X40.5Y6.0
X43.0Y8.62
X43.0Y6.0
X45.0Y8.62
X45.0Y6.0
X45.6Y14.2
X47.5Y8.62
X47.5Y6.0
X48.14Y14.2
X50.68Y14.2
T7
X42.5Y28.5
T8
X1.8Y36.65
X1.8Y23.35
X11.0Y34.8
X11.0Y30.0
X11.0Y25.2
T9
X9.43Y9.0
X9.43Y3.3
X22.57Y9.0
X22.57Y3.3
X37.43Y9.0
X37.43Y3.3
X50.57Y9.0
X50.57Y3.3
T4
G00X2.15Y19.32
M15
G01X1.55Y19.32
M16
G05
G00X2.15Y10.68
M15
G01X1.55Y10.68
M16
G05
G00X6.48Y19.32
M15
G01X5.58Y19.32
M16
G05
G00X6.48Y10.68
M15
G01X5.58Y10.68
M16
G05
G00X8.18Y63.1
M15
G01X8.18Y63.7
M16
G05
G00X8.18Y58.77
M15
G01X8.18Y59.67
M16
G05
G00X16.82Y63.1
M15
G01X16.82Y63.7
M16
G05
G00X16.82Y58.77
M15
G01X16.82Y59.67
M16
G05
G00X23.2Y63.45
M15
G01X23.2Y62.45
M16
G05
G00X23.2Y57.6
M15
G01X23.2Y56.2
M16
G05
G00X37.8Y63.45
M15
G01X37.8Y62.45
M16
G05
G00X37.8Y57.6
M15
G01X37.8Y56.2
M16
G05
T0
M30
